<svg width="21" height="20" viewBox="0 0 21 20" fill="none" xmlns="http://www.w3.org/2000/svg">
<path fill-rule="evenodd" clip-rule="evenodd" d="M10.3334 0.25C4.9486 0.25 0.583374 4.61522 0.583374 10C0.583374 15.3848 4.9486 19.75 10.3334 19.75C15.7182 19.75 20.0834 15.3848 20.0834 10C20.0777 4.61758 15.7158 0.255684 10.3334 0.25ZM10.3334 18.25C5.77702 18.25 2.08337 14.5563 2.08337 10C2.08337 5.44365 5.77702 1.75 10.3334 1.75C14.8897 1.75 18.5834 5.44365 18.5834 10C18.5782 14.5542 14.8876 18.2448 10.3334 18.25ZM16.3334 10C16.3334 10.4142 15.9976 10.75 15.5834 10.75H10.3334C9.91916 10.75 9.58337 10.4142 9.58337 10V4.75C9.58337 4.33579 9.91916 4 10.3334 4C10.7476 4 11.0834 4.33579 11.0834 4.75V9.25H15.5834C15.9976 9.25 16.3334 9.58579 16.3334 10Z" fill="white"/>
</svg>
