<svg width="33" height="34" viewBox="0 0 33 34" fill="none" xmlns="http://www.w3.org/2000/svg">
<path fill-rule="evenodd" clip-rule="evenodd" d="M16.5 9.5C12.3579 9.5 9 12.8579 9 17C9 21.1421 12.3579 24.5 16.5 24.5C20.6421 24.5 24 21.1421 24 17C23.9957 12.8596 20.6404 9.50431 16.5 9.5ZM16.5 22C13.7386 22 11.5 19.7614 11.5 17C11.5 14.2386 13.7386 12 16.5 12C19.2614 12 21.5 14.2386 21.5 17C21.5 19.7614 19.2614 22 16.5 22ZM24 0.75H9C4.16965 0.755167 0.255167 4.66965 0.25 9.5V24.5C0.255167 29.3303 4.16965 33.2448 9 33.25H24C28.8303 33.2448 32.7448 29.3303 32.75 24.5V9.5C32.7448 4.66965 28.8303 0.755167 24 0.75ZM30.25 24.5C30.25 27.9518 27.4518 30.75 24 30.75H9C5.54822 30.75 2.75 27.9518 2.75 24.5V9.5C2.75 6.04822 5.54822 3.25 9 3.25H24C27.4518 3.25 30.25 6.04822 30.25 9.5V24.5ZM26.5 8.875C26.5 9.91053 25.6605 10.75 24.625 10.75C23.5895 10.75 22.75 9.91053 22.75 8.875C22.75 7.83947 23.5895 7 24.625 7C25.6605 7 26.5 7.83947 26.5 8.875Z" fill="#9CCF8C"/>
</svg>
