<svg width="18" height="18" viewBox="0 0 18 18" fill="none" xmlns="http://www.w3.org/2000/svg">
<path fill-rule="evenodd" clip-rule="evenodd" d="M17.9484 0.756562C17.9263 0.376768 17.6232 0.0737419 17.2434 0.0515625C10.1062 -0.3675 4.38938 1.78125 1.95188 5.8125C1.10697 7.19148 0.690616 8.79032 0.755625 10.4062C0.809062 11.8988 1.24406 13.4062 2.04844 14.8922L0.219375 16.7203C0.0298009 16.9099 -0.0442362 17.1862 0.0251527 17.4452C0.0945415 17.7041 0.296815 17.9064 0.555778 17.9758C0.814741 18.0452 1.09105 17.9711 1.28062 17.7816L3.10875 15.9525C4.59375 16.7559 6.10219 17.1909 7.59375 17.2444C7.69812 17.2481 7.80219 17.25 7.90594 17.25C9.41695 17.254 10.8993 16.8379 12.1875 16.0481C16.2188 13.6106 18.3684 7.89469 17.9484 0.756562ZM11.4141 14.7656C9.28125 16.0575 6.75656 16.0781 4.2225 14.8378L12.5316 6.52969C12.8246 6.23663 12.8246 5.76149 12.5316 5.46844C12.2385 5.17538 11.7634 5.17538 11.4703 5.46844L3.16219 13.7812C1.92562 11.25 1.94344 8.71875 3.23438 6.58969C5.30531 3.17062 10.2281 1.29844 16.4822 1.52156C16.7062 7.77094 14.8331 12.6947 11.4141 14.7656Z" fill="white"/>
</svg>
