<svg width="22" height="22" viewBox="0 0 22 22" fill="none" xmlns="http://www.w3.org/2000/svg">
<path fill-rule="evenodd" clip-rule="evenodd" d="M17.5719 5.20212C16.4625 2.55345 13.8716 0.829593 11 0.829593C8.1284 0.829593 5.53746 2.55345 4.42812 5.20212C2.04457 6.30591 0.513795 8.68794 0.5 11.3146C0.489687 14.954 3.44 17.9896 7.07563 18.0834C8.17543 18.1121 9.26546 17.8703 10.25 17.3793V21.0834C10.25 21.4976 10.5858 21.8334 11 21.8334C11.4142 21.8334 11.75 21.4976 11.75 21.0834V17.3793C12.6817 17.844 13.7089 18.085 14.75 18.0834H14.9244C18.56 17.9896 21.5103 14.9559 21.5 11.3165C21.4872 8.68907 19.9562 6.30602 17.5719 5.20212ZM14.8859 16.5834C13.8028 16.6136 12.7372 16.3056 11.8372 15.7021C11.8078 15.6834 11.7788 15.6656 11.75 15.6487V11.7965L15.8356 9.75462C16.0754 9.63472 16.2331 9.39598 16.2491 9.12834C16.2652 8.8607 16.1373 8.60482 15.9135 8.45709C15.6898 8.30936 15.4042 8.29222 15.1644 8.41212L11.75 10.1202V7.58337C11.75 7.16916 11.4142 6.83337 11 6.83337C10.5858 6.83337 10.25 7.16916 10.25 7.58337V12.3702L6.83563 10.6621C6.59581 10.5422 6.31024 10.5594 6.08649 10.7071C5.86274 10.8548 5.7348 11.1107 5.75087 11.3783C5.76693 11.646 5.92456 11.8847 6.16437 12.0046L10.25 14.0465V15.6459C10.2206 15.6627 10.1916 15.6806 10.1628 15.6993C9.26292 16.3032 8.19743 16.6122 7.11406 16.5834C4.67251 16.5224 2.59549 14.7858 2.103 12.3937C1.61052 10.0015 2.83266 7.58571 5.05156 6.56525C5.39237 6.4091 5.66184 6.13026 5.80625 5.78431C6.6816 3.69231 8.72756 2.33055 10.9953 2.33055C13.2631 2.33055 15.309 3.69231 16.1844 5.78431C16.3288 6.13026 16.5982 6.4091 16.9391 6.56525C19.158 7.58571 20.3801 10.0015 19.8876 12.3937C19.3951 14.7858 17.3181 16.5224 14.8766 16.5834H14.8859Z" fill="white"/>
</svg>
