<svg width="35" height="31" viewBox="0 0 35 31" fill="none" xmlns="http://www.w3.org/2000/svg">
<path fill-rule="evenodd" clip-rule="evenodd" d="M34.1547 4.77188C33.9613 4.30475 33.5056 4.0001 33 4H28.2453C26.8931 1.69954 24.4339 0.276319 21.7656 0.25C19.7912 0.224102 17.8899 0.995901 16.4922 2.39062C15.0537 3.80231 14.2453 5.73451 14.25 7.75V8.70156C7.95937 7.04219 2.81406 1.925 2.75938 1.87031C2.41698 1.52488 1.9053 1.40943 1.44775 1.57435C0.990191 1.73927 0.669841 2.15462 0.626563 2.63906C-0.046875 10.1062 2.12187 15.1031 4.06406 17.9797C5.01106 19.4017 6.1631 20.6759 7.48281 21.7609C5.10313 24.5 1.35625 25.9391 1.31563 25.9547C0.958292 26.0885 0.681659 26.3782 0.56447 26.7414C0.447281 27.1045 0.502373 27.5013 0.714062 27.8187C0.83125 27.9937 1.3 28.6078 2.44531 29.1812C3.86094 29.8906 5.73125 30.25 8 30.25C19.0422 30.25 28.2687 21.7469 29.2109 10.8062L33.8844 6.13437C34.2418 5.77668 34.3484 5.23891 34.1547 4.77188ZM27.1234 9.36719C26.9091 9.58202 26.7803 9.86748 26.7609 10.1703C26.125 20.0281 17.8875 27.75 8 27.75C6.35 27.75 5.1875 27.5312 4.37187 27.2687C6.17031 26.2922 8.67813 24.6125 10.2906 22.1938C10.4819 21.9063 10.5458 21.5525 10.467 21.2163C10.3883 20.8801 10.174 20.5914 9.875 20.4187C9.80156 20.3766 3.01406 16.3031 3 5.41875C5.5 7.45 10.0703 10.6016 15.2922 11.4797C15.6544 11.5408 16.0252 11.4394 16.306 11.2026C16.5868 10.9657 16.7491 10.6173 16.75 10.25V7.75C16.7472 6.40293 17.288 5.1117 18.25 4.16875C19.1723 3.24477 20.429 2.73305 21.7344 2.75C23.7125 2.775 25.5609 3.98125 26.3344 5.75156C26.5336 6.20637 26.9832 6.50014 27.4797 6.5H29.9797L27.1234 9.36719Z" fill="#9CCF8C"/>
</svg>
