<svg width="33" height="34" viewBox="0 0 33 34" fill="none" xmlns="http://www.w3.org/2000/svg">
<path fill-rule="evenodd" clip-rule="evenodd" d="M16.5 0.75C7.52537 0.75 0.25 8.02537 0.25 17C0.25 25.9746 7.52537 33.25 16.5 33.25C25.4746 33.25 32.75 25.9746 32.75 17C32.7405 8.0293 25.4707 0.759473 16.5 0.75ZM17.75 30.6922V20.75H21.5C22.1904 20.75 22.75 20.1904 22.75 19.5C22.75 18.8096 22.1904 18.25 21.5 18.25H17.75V14.5C17.75 13.1193 18.8693 12 20.25 12H22.75C23.4404 12 24 11.4404 24 10.75C24 10.0596 23.4404 9.5 22.75 9.5H20.25C17.4886 9.5 15.25 11.7386 15.25 14.5V18.25H11.5C10.8096 18.25 10.25 18.8096 10.25 19.5C10.25 20.1904 10.8096 20.75 11.5 20.75H15.25V30.6922C7.9298 30.0239 2.42978 23.7165 2.76424 16.3735C3.09871 9.03045 9.14936 3.24912 16.5 3.24912C23.8506 3.24912 29.9013 9.03045 30.2358 16.3735C30.5702 23.7165 25.0702 30.0239 17.75 30.6922Z" fill="#9CCF8C"/>
</svg>
