<svg width="17" height="22" viewBox="0 0 17 22" fill="none" xmlns="http://www.w3.org/2000/svg">
<path fill-rule="evenodd" clip-rule="evenodd" d="M8.66666 5C6.59559 5 4.91666 6.67893 4.91666 8.75C4.91666 10.8211 6.59559 12.5 8.66666 12.5C10.7377 12.5 12.4167 10.8211 12.4167 8.75C12.4167 6.67893 10.7377 5 8.66666 5ZM8.66666 11C7.42402 11 6.41666 9.99264 6.41666 8.75C6.41666 7.50736 7.42402 6.5 8.66666 6.5C9.9093 6.5 10.9167 7.50736 10.9167 8.75C10.9167 9.99264 9.9093 11 8.66666 11ZM8.66666 0.5C4.11245 0.505166 0.421823 4.19579 0.416656 8.75C0.416656 11.6938 1.77697 14.8138 4.35416 17.7734C5.51218 19.1108 6.81552 20.3151 8.24009 21.3641C8.49843 21.545 8.84238 21.545 9.10072 21.3641C10.5227 20.3147 11.8235 19.1104 12.9792 17.7734C15.5526 14.8138 16.9167 11.6938 16.9167 8.75C16.9115 4.19579 13.2209 0.505166 8.66666 0.5ZM8.66666 19.8125C7.11697 18.5938 1.91666 14.1172 1.91666 8.75C1.91666 5.02208 4.93873 2 8.66666 2C12.3946 2 15.4167 5.02208 15.4167 8.75C15.4167 14.1153 10.2163 18.5938 8.66666 19.8125Z" fill="white"/>
</svg>
