<svg width="22" height="22" viewBox="0 0 22 22" fill="none" xmlns="http://www.w3.org/2000/svg">
<path fill-rule="evenodd" clip-rule="evenodd" d="M8 18.1667C8 18.5809 7.66421 18.9167 7.25 18.9167H2.75C1.9464 18.9162 1.20406 18.4872 0.80247 17.7911C0.40088 17.095 0.401011 16.2376 0.802812 15.5417L4.0175 9.987L2.70031 10.3386C2.44074 10.4079 2.16389 10.3335 1.97406 10.1433C1.78423 9.95321 1.71025 9.67625 1.78 9.41678C1.84974 9.15732 2.05261 8.95477 2.31219 8.88544L5.38438 8.06325C5.57658 8.01172 5.78138 8.03868 5.95369 8.1382C6.12601 8.23772 6.25171 8.40164 6.30312 8.59387L7.12719 11.6661C7.17976 11.8592 7.15298 12.0653 7.05279 12.2385C6.95261 12.4118 6.78734 12.5378 6.59375 12.5886C6.53007 12.6051 6.46455 12.6136 6.39875 12.6139C6.05954 12.6136 5.76277 12.3856 5.675 12.0579L5.31875 10.7314L2.10406 16.2917C1.9704 16.5232 1.97006 16.8083 2.10316 17.0401C2.23626 17.272 2.48269 17.4154 2.75 17.4167H7.25C7.66421 17.4167 8 17.7525 8 18.1667ZM21.1934 15.5417L19.0241 11.7917C18.8084 11.4525 18.3638 11.3436 18.0158 11.5447C17.6678 11.7459 17.5403 12.1855 17.7266 12.5417L19.8959 16.2917C20.0296 16.5232 20.0299 16.8083 19.8968 17.0401C19.7637 17.272 19.5173 17.4154 19.25 17.4167H12.8103L13.7797 16.4473C14.0727 16.1545 14.073 15.6796 13.7802 15.3865C13.4874 15.0935 13.0124 15.0933 12.7194 15.3861L10.4694 17.6361C10.3285 17.7767 10.2494 17.9676 10.2494 18.1667C10.2494 18.3657 10.3285 18.5566 10.4694 18.6973L12.7194 20.9473C13.0124 21.2401 13.4874 21.2399 13.7802 20.9468C14.073 20.6538 14.0727 20.1789 13.7797 19.8861L12.8103 18.9167H19.25C20.0536 18.9162 20.7959 18.4872 21.1975 17.7911C21.5991 17.095 21.599 16.2376 21.1972 15.5417H21.1934ZM11 1.66669C11.2685 1.66399 11.5171 1.80771 11.6488 2.04169L14.8634 7.59637L13.5434 7.242C13.1489 7.14939 12.7522 7.38696 12.6475 7.77847C12.5428 8.16999 12.7681 8.57383 13.1562 8.69044L16.2294 9.5145C16.2927 9.53114 16.3579 9.53965 16.4234 9.53981C16.7626 9.53949 17.0594 9.31153 17.1472 8.98387L17.9713 5.90981C18.0483 5.64854 17.9776 5.36604 17.7866 5.17184C17.5956 4.97764 17.3143 4.90227 17.0518 4.97494C16.7892 5.04762 16.5868 5.25691 16.5228 5.52169L16.1666 6.85012L12.9472 1.29169C12.5449 0.59687 11.8029 0.169056 11 0.169056C10.1971 0.169056 9.45509 0.59687 9.05281 1.29169L6.88156 5.04169C6.68757 5.39894 6.81351 5.8457 7.16553 6.04903C7.51755 6.25236 7.96747 6.13823 8.18 5.79169L10.3512 2.04169C10.4829 1.80771 10.7315 1.66399 11 1.66669Z" fill="white"/>
</svg>
